<?xml version="1.0" encoding="UTF-8" standalone="no"?>
<svg
   version="1.1"
   width="410"
   height="410"
   id="svg272"
   sodipodi:docname="tree.svg"
   xml:space="preserve"
   inkscape:version="1.2.2 (b0a8486541, 2022-12-01)"
   xmlns:inkscape="http://www.inkscape.org/namespaces/inkscape"
   xmlns:sodipodi="http://sodipodi.sourceforge.net/DTD/sodipodi-0.dtd"
   xmlns="http://www.w3.org/2000/svg"
   xmlns:svg="http://www.w3.org/2000/svg"><defs
     id="defs276" /><sodipodi:namedview
     id="namedview274"
     pagecolor="#ffffff"
     bordercolor="#000000"
     borderopacity="0.25"
     inkscape:showpageshadow="2"
     inkscape:pageopacity="0.0"
     inkscape:pagecheckerboard="0"
     inkscape:deskcolor="#d1d1d1"
     showgrid="false"
     inkscape:zoom="2.8365854"
     inkscape:cx="205"
     inkscape:cy="205"
     inkscape:window-width="2494"
     inkscape:window-height="1361"
     inkscape:window-x="66"
     inkscape:window-y="40"
     inkscape:window-maximized="1"
     inkscape:current-layer="svg272" /><g
     transform="translate(0,-642.36218)"
     id="g270"><path
       d="m 92.52969,1046.7674 c 10.9884,-0.6928 71.6241,-2.4465 84.4808,-2.4433 l 10.7283,0 2.0989,-4.2011 c 4.1286,-8.2639 8.2316,-23.4653 10.4409,-38.6837 1.4406,-9.92309 1.1832,-13.23899 -1.4519,-18.69799 -2.0109,-4.1659 -8.7768,-10.3667 -16.3346,-14.9704 -22.5696,-13.74781 -40.7255,-27.59311 -60.488,-46.12681 -5.3075,-4.9775 -7.4576,-6.5154 -12.7924,-9.1507 -9.8388,-4.86 -16.1925,-10.2253 -23.217,-19.6051 -1.1533,-1.5401 -1.4275,-1.6178 -3.7343,-1.0587 -1.3692,0.3319 -5.7104,0.6481 -9.6469,0.7027 -15.5864,0.216 -30.3664,-6.1233 -41.7466,-17.9055 -12.7052,-13.1539 -18.6354,-28.1627 -18.6165,-47.1165 0.014,-13.3839 2.821,-23.7179 9.4871,-34.9199 7.6486,-12.8529 21.7839,-23.9109 34.9101,-27.3099 2.0015,-0.5183 3.7759,-1.0792 3.9432,-1.2465 0.1673,-0.1672 -0.041,-2.4425 -0.4625,-5.0561 -1.1213,-6.9514 -0.4422,-17.3372 1.5885,-24.2896 5.5858,-19.1243 19.8501,-33.2967 38.5927,-38.3442 9.0821,-2.4457 23.4262,-1.72 32.147,1.6265 0.7309,0.2804 1.3023,-0.5716 2.3813,-3.5512 4.9387,-13.638 14.9414,-26.7866 26.3348,-34.617 28.3574,-19.4893 64.4171,-15.7929 88.5578,9.0778 l 4.4055,4.5387 3.9967,-0.9757 c 2.1981,-0.5366 7.2175,-1.1337 11.154,-1.3267 12.8569,-0.6305 25.1661,3.0672 36.0394,10.8262 l 4.056,2.8943 9.9823,0.093 c 7.94064,0.074 10.94897,0.3564 14.70838,1.3804 23.14728,6.3052 40.06103,25.8545 44.53987,51.4803 1.07689,6.1616 0.8716,17.1464 -0.43758,23.4128 l -0.72856,3.4869 4.26857,5.6238 c 15.98837,21.0645 20.29721,48.4561 11.676,74.2249 -6.25253,18.6888 -19.87656,34.5498 -36.88718,42.9439 -8.07909,3.9867 -18.37197,6.8148 -24.87953,6.836 -3.01453,0.01 -3.62273,0.2643 -6.53507,2.7352 -5.5338,4.6949 -16.373,10.8769 -22.505,12.8353 -1.3693,0.4373 -3.1898,1.2689 -4.0455,1.848 -0.8558,0.5791 -6.4572,3.8114 -12.4477,7.1826 -14.7717,8.3132 -29.8496,18.0081 -38.7452,24.9124 -10.5516,8.1897 -13.3817,17.9625 -11.7084,40.43171 2.1064,28.28389 6.4093,47.14739 12.9903,56.94809 l 2.2986,3.4231 23.3812,0.3939 c 27.1526,0.4575 73.59162,1.8183 73.96999,2.1675 0.14258,0.1316 -59.09279,0.1986 -131.63409,0.149 -72.5414,-0.05 -128.3925,-0.3111 -124.1137,-0.5809 z m 104.0913,-80.76259 c -0.087,-0.79941 -2.5026,-4.71951 -5.3681,-8.71131 -6.2746,-8.7409 -15.6753,-23.0074 -17.7885,-26.9955 -1.2676,-2.3924 -1.9105,-2.9579 -3.7344,-3.285 -5.7734,-1.0353 -14.2423,-4.2253 -21.9358,-8.2626 -1.4384,-0.7547 4.5085,15.9952 7.1831,20.232 3.8648,6.1222 22.0216,19.7908 35.8496,26.98781 4.1177,2.1432 6.0245,2.1545 5.7941,0.035 z m 4.9053,-15.44571 c 0.655,-0.7918 0.8541,-3.6809 0.8541,-12.3958 0,-6.2498 -0.1404,-11.5037 -0.312,-11.6753 -0.1716,-0.1717 -1.8347,0.083 -3.6959,0.5657 -1.8611,0.4827 -5.567,1.0598 -8.2354,1.2823 -5.6207,0.4688 -5.4848,0 -2.3732,8.1561 2.1713,5.6901 5.0328,10.1672 8.2684,12.9367 2.7937,2.3914 4.2097,2.6826 5.494,1.1303 z m 39.6918,-12.0063 c 3.1122,-1.5877 9.0467,-7.4697 12.6956,-12.5831 3.1671,-4.4383 6.9096,-11.9046 6.5332,-13.0338 -0.1296,-0.3889 -2.6049,-1.3886 -5.5005,-2.2214 -2.8957,-0.8327 -7.6094,-2.7787 -10.475,-4.3243 l -5.2103,-2.8102 -1.7286,1.6562 c -1.708,1.6363 -1.7332,1.7731 -2.1036,11.4025 -0.2061,5.3605 -0.4996,12.0382 -0.652,14.8394 -0.2407,4.4221 -0.1117,5.3033 0.9795,6.6906 1.5076,1.9166 2.3427,1.9754 5.4617,0.3841 z m -93.9222,-4.5435 c -1.7418,-3.7529 -4.9755,-14.0119 -4.9755,-15.7848 0,-0.6891 -1.5123,-0.864 -7.4686,-0.864 -4.1077,0 -7.4686,0.1742 -7.4686,0.3873 0,1.239 20.1434,20.1514 21.4632,20.1514 0.1402,0 -0.5576,-1.7505 -1.5505,-3.8899 z m 119.1402,-7.5683 c 4.3638,-2.9262 15.4751,-11.6228 15.1696,-11.873 -0.1004,-0.082 -3.3378,-0.3086 -7.1943,-0.503 l -7.0116,-0.3533 -3.1551,4.6756 c -3.4076,5.0498 -5.6374,9.5127 -5.1482,10.3042 0.7211,1.1668 3.5262,0.3067 7.3396,-2.2505 z"
       style="fill:#000080;fill-opacity:1"
       id="path268" /></g><path
     style="fill:#38a169;fill-opacity:1;stroke:#dddddd;stroke-width:0.470049"
     d="m 108.05245,404.35942 c -3.8779,-0.10936 -5.70228,-0.2355 -4.05417,-0.28027 1.64811,-0.0448 7.3592,-0.23631 12.69132,-0.42558 21.23935,-0.75401 49.07143,-1.40916 59.86752,-1.40927 l 11.39374,-1e-4 1.86614,-3.96604 c 4.2889,-9.11508 7.93203,-22.2042 10.27831,-36.9282 2.28645,-14.34848 1.26881,-19.57341 -5.1017,-26.19408 -4.06724,-4.22696 -7.3672,-6.74739 -15.55251,-11.87862 -21.23166,-13.30977 -36.76332,-25.23997 -56.39677,-43.31958 -6.24051,-5.74662 -7.96331,-6.9926 -14.33101,-10.36459 -2.73884,-1.45034 -5.99099,-3.31751 -7.227,-4.14925 -5.195803,-3.49642 -10.256998,-8.3677 -14.412773,-13.87199 -2.001526,-2.651 -2.38443,-2.8297 -4.861348,-2.2688 -1.327099,0.30052 -4.645529,0.44967 -9.765939,0.43895 -8.53484,-0.0179 -11.341379,-0.43018 -17.911614,-2.63141 -16.345575,-5.47628 -30.643947,-19.29936 -37.470745,-36.22519 -3.109328,-7.70903 -4.462079,-15.42733 -4.491609,-25.62745 -0.03046,-10.5233 1.259564,-17.48029 4.81248,-25.95319 3.307003,-7.88645 7.640721,-14.37032 13.638444,-20.40509 7.974002,-8.02325 16.069014,-12.99169 25.792501,-15.83055 1.965038,-0.57371 3.679973,-1.21652 3.810965,-1.42848 0.130992,-0.21195 0.03568,-2.00755 -0.211818,-3.99022 -0.622339,-4.98558 -0.595896,-13.66284 0.05543,-18.18987 2.970537,-20.646518 17.503951,-38.034255 37.159333,-44.457337 4.782573,-1.562868 9.176913,-2.173275 15.565273,-2.162124 5.8602,0.01022 11.11324,0.634774 15.48094,1.840569 4.29469,1.185636 4.4536,1.193858 5.05227,0.261324 0.29257,-0.455745 1.1873,-2.494358 1.98827,-4.530256 3.73668,-9.497744 10.27275,-19.198439 17.69389,-26.260873 9.4034,-8.948888 20.81295,-14.8807835 34.04894,-17.7022552 4.16734,-0.8883374 5.10415,-0.9585965 12.78155,-0.9585965 7.6774,0 8.6142,0.070259 12.78154,0.9585965 14.40874,3.0714613 25.52062,9.2624812 36.8144,20.5112582 l 4.295,4.277881 2.57946,-0.609458 c 7.32204,-1.729999 18.51728,-2.124465 25.14181,-0.885875 7.93517,1.483643 15.11185,4.526009 22.7386,9.63944 l 4.75925,3.190883 9.51848,0.189463 c 10.60322,0.211057 13.1074,0.552136 18.9275,2.57798 20.13359,7.008042 34.54877,23.904622 40.00237,46.888319 0.96267,4.057111 0.99355,4.483944 0.97959,13.531471 -0.0127,8.17031 -0.10967,9.79787 -0.77392,12.97452 l -0.7595,3.63231 3.60246,4.82857 c 5.47348,7.33639 8.35367,12.40678 11.32587,19.93841 8.08342,20.48364 6.95668,44.48608 -3.02952,64.53559 -6.01244,12.07137 -15.25316,22.49086 -26.21823,29.56268 -8.81594,5.68576 -20.52532,9.7188 -30.34505,10.4517 -4.47687,0.33413 -4.29565,0.25444 -9.36596,4.11861 -6.06299,4.62071 -13.2895,8.70214 -19.88174,11.22892 -1.92546,0.73802 -4.76997,2.09362 -6.32113,3.01245 -1.55116,0.91882 -6.78633,3.93974 -11.63371,6.71315 -19.32526,11.05689 -36.01625,22.11698 -41.46022,27.47315 -4.00239,3.93783 -6.33865,8.27993 -7.78127,14.46202 -2.40746,10.31672 -0.0358,41.28224 4.63066,60.46001 2.2485,9.24073 4.36398,14.5942 7.99367,20.22901 l 2.06858,3.21132 7.05073,0.005 c 10.67886,0.008 55.50584,1.0598 74.38521,1.7453 3.8779,0.14081 -43.39725,0.24664 -105.05589,0.23515 -61.65864,-0.0116 -115.27945,-0.11035 -119.15735,-0.2197 z m 88.58958,-80.20207 c 0.1261,-1.29602 -1.39325,-3.90095 -6.57986,-11.28117 -4.84278,-6.89097 -13.93445,-20.71015 -16.06795,-24.42299 -1.83945,-3.20114 -2.41951,-3.64417 -5.64064,-4.30818 -3.32378,-0.68517 -9.13237,-2.71589 -14.29511,-4.99765 -2.61758,-1.15688 -4.90995,-2.25086 -5.09415,-2.43106 -0.1842,-0.18021 -0.63812,-0.32765 -1.00871,-0.32765 -0.58725,0 -0.64226,0.16982 -0.42824,1.32201 0.91115,4.90514 5.95588,17.27541 8.28813,20.32347 4.15073,5.42465 18.63475,16.4578 30.8526,23.50185 4.75702,2.74259 7.42497,3.88298 8.81341,3.76718 0.89344,-0.0745 1.07359,-0.25237 1.16052,-1.14581 z m 4.84305,-15.69942 c 0.5432,-0.60023 0.69212,-1.61661 0.91688,-6.25752 0.28894,-5.96622 0.008,-18.40849 -0.41514,-18.40849 -0.14206,0 -1.82252,0.32278 -3.73434,0.7173 -1.91182,0.39451 -5.36221,0.93789 -7.66752,1.2075 -5.1059,0.59716 -5.49584,0.85704 -4.85893,3.23836 0.8076,3.01952 3.5345,9.36556 5.22849,12.16775 1.66432,2.75309 4.61421,6.01804 6.64221,7.35161 1.38033,0.90768 3.05842,0.90055 3.88835,-0.0165 z m 40.30966,-12.40083 c 2.66982,-1.5678 9.5808,-8.54168 12.31984,-12.43197 2.65252,-3.76741 6.40993,-11.10958 6.40993,-12.52535 0,-1.11517 0.004,-1.11325 -7.227,-3.54425 -1.93895,-0.65187 -5.813,-2.34188 -8.609,-3.75559 -2.796,-1.4137 -5.2624,-2.57036 -5.48091,-2.57036 -0.21849,0 -0.98306,0.59991 -1.69903,1.33313 -0.99831,1.02236 -1.38398,1.78252 -1.65442,3.26096 -0.47262,2.58363 -1.50048,26.64561 -1.20168,28.13111 0.12979,0.64526 0.76775,1.73704 1.4177,2.42618 1.04992,1.11325 1.32485,1.22975 2.46522,1.0447 0.70592,-0.11456 2.17263,-0.73041 3.25935,-1.36856 z m -92.67178,-0.47318 c 0,-0.10684 -0.61976,-1.65359 -1.37725,-3.43724 -1.78523,-4.20363 -3.60159,-9.48309 -4.63309,-13.46654 -0.45187,-1.74506 -0.9898,-3.28938 -1.19539,-3.43184 -0.62132,-0.4305 -14.65154,-0.32659 -14.65154,0.10851 0,0.70123 3.86993,4.76616 9.79684,10.29046 8.0844,7.53527 12.06043,10.81113 12.06043,9.93665 z m 114.79141,-9.83744 c 3.70989,-1.86225 17.64775,-12.55395 17.48796,-13.41498 -0.061,-0.32875 -1.88881,-0.50115 -10.5324,-0.99342 l -3.57978,-0.20387 -2.63842,3.94923 c -4.09039,6.12256 -6.30137,10.5778 -5.7179,11.52188 0.43864,0.70973 2.59722,0.33751 4.98054,-0.85884 z"
     id="path689" /></svg>
